<svg id="ico_calendar_dis" xmlns="http://www.w3.org/2000/svg" width="20" height="20" viewBox="0 0 20 20">
  <rect id="icon" width="20" height="20" fill="none" opacity="0.1"/>
  <path id="Path_54" data-name="Path 54" d="M-5000-4310a1,1,0,0,1-1-1v-11a1,1,0,0,1,1-1h2.8v-2h1.2v2h4v-2h1.2v2h2.8a1,1,0,0,1,1,1v11a1,1,0,0,1-1,1Zm.2-1.2h11.6v-7.2h-11.6Zm11.6-8.4v-2.2h-11.6v2.2Zm-9.3,4.6a.5.5,0,0,1-.5-.5v-1a.5.5,0,0,1,.5-.5h2a.5.5,0,0,1,.5.5v1a.5.5,0,0,1-.5.5Z" transform="translate(5004 4327)" fill="#777d87" opacity="0.5"/>
</svg>
