<svg xmlns="http://www.w3.org/2000/svg" width="20" height="20" viewBox="0 0 20 20">
  <g id="ico_update" transform="translate(-1613 -70)">
    <rect id="icon" width="20" height="20" transform="translate(1613 70)" fill="none" opacity="0.1"/>
    <path id="Path_24" data-name="Path 24" d="M197-1321a7.009,7.009,0,0,1,7-7,6.968,6.968,0,0,1,3.788,1.115,7.025,7.025,0,0,1,1.561,1.372v-1.985h1.3v4.15H206.5v-1.3h1.745A5.57,5.57,0,0,0,204-1326.6a5.606,5.606,0,0,0-5.6,5.6,5.607,5.607,0,0,0,5.6,5.6,5.607,5.607,0,0,0,5.6-5.6H211a7.008,7.008,0,0,1-7,7A7.009,7.009,0,0,1,197-1321Zm6.25.811V-1325h1.5v4.189l2.28,2.28-1.06,1.061Z" transform="translate(1419 1400.999)" fill="#9ea6b8"/>
  </g>
</svg>
