<svg xmlns="http://www.w3.org/2000/svg" xmlns:xlink="http://www.w3.org/1999/xlink" width="135" height="36" viewBox="0 0 135 36">
  <defs>
    <linearGradient id="linear-gradient" x1="0.5" x2="0.5" y2="1" gradientUnits="objectBoundingBox">
      <stop offset="0" stop-color="#f2f6ff"/>
      <stop offset="1" stop-color="#b8becc"/>
    </linearGradient>
  </defs>
  <g id="logo_kphm-cloud" transform="translate(-30 -12)">
    <rect id="Rectangle_610" data-name="Rectangle 610" width="135" height="36" transform="translate(30 12)" fill="none"/>
    <g id="Group_161" data-name="Group 161" transform="translate(5 2)">
      <rect id="Rectangle_619" data-name="Rectangle 619" width="42" height="12" transform="translate(106 24)" fill="none"/>
      <path id="Path_11" data-name="Path 11" d="M5.852.14A4.974,4.974,0,0,0,9.744-1.5L8.568-2.618A3.407,3.407,0,0,1,5.95-1.456a3.346,3.346,0,0,1-2.5-.957,3.346,3.346,0,0,1-1-2.487,3.346,3.346,0,0,1,1-2.487,3.346,3.346,0,0,1,2.5-.957A3.442,3.442,0,0,1,8.568-7.2L9.744-8.3A4.964,4.964,0,0,0,5.866-9.94,4.994,4.994,0,0,0,2.151-8.555,4.994,4.994,0,0,0,.616-4.9,4.99,4.99,0,0,0,2.145-1.249,4.99,4.99,0,0,0,5.852.14ZM11.214,0h1.75V-10.388h-1.75Zm7.294.1A3.77,3.77,0,0,0,21.344-.946,3.77,3.77,0,0,0,22.5-3.738a3.759,3.759,0,0,0-1.158-2.785A3.759,3.759,0,0,0,18.51-7.56a3.763,3.763,0,0,0-2.821,1.044,3.763,3.763,0,0,0-1.155,2.778A3.774,3.774,0,0,0,15.686-.954,3.774,3.774,0,0,0,18.508.1Zm0-1.5a2.174,2.174,0,0,1-1.621-.681A2.174,2.174,0,0,1,16.3-3.738,2.174,2.174,0,0,1,16.889-5.4a2.174,2.174,0,0,1,1.623-.679,2.177,2.177,0,0,1,1.632.675,2.177,2.177,0,0,1,.594,1.663,2.177,2.177,0,0,1-.6,1.664,2.177,2.177,0,0,1-1.634.674ZM29.554-7.476V-3.7a1.97,1.97,0,0,1-.488,1.612,1.97,1.97,0,0,1-1.556.646c-1.106,0-1.75-.644-1.75-2V-7.476H24.01v4.27A2.957,2.957,0,0,0,24.826-.78a2.957,2.957,0,0,0,2.4.88A3.054,3.054,0,0,0,29.638-.95V0H31.3V-7.476Zm9.506-2.912v3.836A3.061,3.061,0,0,0,36.652-7.56a3.627,3.627,0,0,0-2.737,1.073,3.627,3.627,0,0,0-1.043,2.749,3.638,3.638,0,0,0,1.04,2.756A3.638,3.638,0,0,0,36.652.1,3.083,3.083,0,0,0,39.13-.966V0h1.68V-10.388ZM36.862-1.4a2.185,2.185,0,0,1-1.629-.678,2.185,2.185,0,0,1-.6-1.66,2.185,2.185,0,0,1,.6-1.66,2.185,2.185,0,0,1,1.629-.678,2.185,2.185,0,0,1,1.629.678,2.185,2.185,0,0,1,.6,1.66,2.185,2.185,0,0,1-.6,1.66,2.185,2.185,0,0,1-1.629.678Z" transform="translate(106.284 35.123)" fill="#a7b2cc"/>
    </g>
    <g id="Group_160" data-name="Group 160">
      <rect id="Rectangle_50" data-name="Rectangle 50" width="76" height="20" transform="translate(30 20)" fill="none"/>
      <path id="Path_1" data-name="Path 1" d="M6.867-6.844,5.039-4.875V0H1.523V-17.062H5.039v7.734l1.547-2.121,4.348-5.613h4.324L9.2-9.48,15.434,0H11.25Zm14.332.9H14.6v-2.73h6.6Zm6.457-.07V0H24.141V-17.062H30.8a7.7,7.7,0,0,1,3.381.7,5.181,5.181,0,0,1,2.244,2,5.571,5.571,0,0,1,.785,2.947,4.9,4.9,0,0,1-1.72,3.956,7.15,7.15,0,0,1-4.752,1.447Zm0-2.848H30.8a3.088,3.088,0,0,0,2.127-.656,2.387,2.387,0,0,0,.732-1.875,2.814,2.814,0,0,0-.738-2.027,2.758,2.758,0,0,0-2.039-.8H27.656ZM53.508,0H49.992V-7.312H43.137V0H39.621V-17.062h3.516v6.914h6.855v-6.914h3.516Zm7.664-17.062L65.555-4.687l4.359-12.375h4.617V0H71V-4.664l.352-8.051L66.75,0H64.336L59.742-12.7l.352,8.039V0H56.578V-17.062Z" transform="translate(30 38.513)" fill="url(#linear-gradient)"/>
    </g>
  </g>
</svg>
