<svg xmlns="http://www.w3.org/2000/svg" width="16" height="16" viewBox="0 0 16 16">
  <g id="ico_logout-act" transform="translate(-1867 -76)">
    <rect id="Rectangle_36" data-name="Rectangle 36" width="16" height="16" transform="translate(1867 76)" fill="none" opacity="0.1"/>
    <path id="Path_27" data-name="Path 27" d="M-2018.9-1368.8a1.1,1.1,0,0,1-1.1-1.1v-9a1.1,1.1,0,0,1,1.1-1.1h6a1.1,1.1,0,0,1,1.1,1.1v1h-1.2v-.9h-5.8v8.8h5.8v-.9h1.2v1a1.1,1.1,0,0,1-1.1,1.1Zm8.54-3.559,1.391-1.391h-5.431v-1.3h5.431l-1.391-1.391.92-.92,2.959,2.96-2.959,2.959Z" transform="translate(3888.9 1458.4)" fill="#f88125"/>
  </g>
</svg>
