<svg id="ico_eye-on" xmlns="http://www.w3.org/2000/svg" width="20" height="20" viewBox="0 0 20 20">
  <rect id="icon" width="20" height="20" fill="none" opacity="0.1"/>
  <path id="Path_18" data-name="Path 18" d="M10,14.3A7.13,7.13,0,0,0,16.721,10,7.13,7.13,0,0,0,10,5.7,7.129,7.129,0,0,0,3.279,10,7.129,7.129,0,0,0,10,14.3ZM18,10a8.291,8.291,0,0,1-8,5.5A8.291,8.291,0,0,1,2,10a8.291,8.291,0,0,1,8-5.5A8.291,8.291,0,0,1,18,10Zm-5.7,0A2.3,2.3,0,1,1,10,7.7,2.3,2.3,0,0,1,12.3,10Zm1.2,0A3.5,3.5,0,1,1,10,6.5,3.5,3.5,0,0,1,13.5,10Z" fill="#43464d" fill-rule="evenodd"/>
</svg>
