<svg xmlns="http://www.w3.org/2000/svg" width="20" height="20" viewBox="0 0 20 20">
  <g id="ico_settings" transform="translate(-1761 -18)">
    <rect id="icon" width="20" height="20" transform="translate(1761 18)" fill="none" opacity="0.2"/>
    <path id="Path_16" data-name="Path 16" d="M7.178-1362a1,1,0,0,1-1-1l-.192-1.537a7.013,7.013,0,0,1-1.558-.9l-1.428.6a1,1,0,0,1-1.366-.366l-1.5-2.6a1,1,0,0,1,.366-1.365l1.236-.936a7.062,7.062,0,0,1-.058-.9,7.066,7.066,0,0,1,.058-.9L.5-1372.835a1,1,0,0,1-.366-1.366l1.5-2.6A1,1,0,0,1,3-1377.165l1.427.6a6.981,6.981,0,0,1,1.559-.9L6.179-1379a1,1,0,0,1,1-1h3a1,1,0,0,1,1,1l.193,1.536a6.975,6.975,0,0,1,1.558.9l1.427-.6a1,1,0,0,1,1.366.365l1.5,2.6a1,1,0,0,1-.365,1.366l-1.236.935a7.066,7.066,0,0,1,.058.9,7.086,7.086,0,0,1-.058.9l1.236.935a1,1,0,0,1,.365,1.365l-1.5,2.6a1,1,0,0,1-1.366.366l-1.428-.6a7.027,7.027,0,0,1-1.557.9L11.179-1363a1,1,0,0,1-1,1Zm-1.959-4.47a5.7,5.7,0,0,0,1.267.733l.7.291.268,2.146H9.906l.268-2.146.7-.291a5.7,5.7,0,0,0,1.267-.733l.6-.459,2,.842,1.228-2.127-1.724-1.3.1-.747a5.882,5.882,0,0,0,.047-.734,5.861,5.861,0,0,0-.047-.734l-.1-.748,1.724-1.3-1.227-2.126-2,.842-.6-.459a5.7,5.7,0,0,0-1.268-.734l-.7-.29-.268-2.146H7.451l-.268,2.146-.7.291a5.686,5.686,0,0,0-1.269.734l-.6.459-2-.842L1.4-1373.787l1.724,1.306-.1.747a5.7,5.7,0,0,0-.047.734,5.715,5.715,0,0,0,.047.734l.1.747-1.724,1.3,1.228,2.127,1.994-.842Zm.46-4.531a3,3,0,0,1,3-3,3,3,0,0,1,3,3,3,3,0,0,1-3,3A3,3,0,0,1,5.679-1371Zm1.3,0a1.7,1.7,0,0,0,1.7,1.7,1.7,1.7,0,0,0,1.7-1.7,1.7,1.7,0,0,0-1.7-1.7A1.7,1.7,0,0,0,6.979-1371Z" transform="translate(1762.321 1399)" fill="#e1e4eb"/>
  </g>
</svg>
