<svg xmlns="http://www.w3.org/2000/svg" width="20" height="20" viewBox="0 0 20 20">
  <g id="ico_upload" transform="translate(-904 -188)">
    <rect id="g" width="20" height="20" transform="translate(904 188)" fill="none" opacity="0.1"/>
    <path id="Path_47" data-name="Path 47" d="M1.7-1364.31a1.7,1.7,0,0,1-1.7-1.7v-4.7H7v-6.61l-2.805,2.805-.99-.99L7.7-1380l4.5,4.495-.99.99-2.805-2.8v6.61h7v4.7a1.7,1.7,0,0,1-1.7,1.7Zm-.3-1.7a.3.3,0,0,0,.3.3h12a.3.3,0,0,0,.3-.3v-4.7H8.4v2.7H7v-2.7H1.4Z" transform="translate(906.3 1570.01)" fill="#2a528c"/>
  </g>
</svg>
