<svg xmlns="http://www.w3.org/2000/svg" width="40" height="40" viewBox="0 0 40 40">
  <g id="img_spinner" transform="translate(-952 -189)">
    <rect id="g" width="40" height="40" transform="translate(952 189)" fill="none" opacity="0.1"/>
    <path id="Ellipse_14" data-name="Ellipse 14" d="M20,3.5A16.5,16.5,0,0,0,8.333,31.667,16.5,16.5,0,1,0,31.667,8.333,16.392,16.392,0,0,0,20,3.5M20,0A20,20,0,1,1,0,20,20,20,0,0,1,20,0Z" transform="translate(952 189)" fill="#d1dae5"/>
    <path id="Path_48" data-name="Path 48" d="M40-1360H36.5a16.392,16.392,0,0,0-4.833-11.668A16.4,16.4,0,0,0,20-1376.5v-3.5a19.868,19.868,0,0,1,14.142,5.858A19.869,19.869,0,0,1,40-1360Z" transform="translate(952 1569)" fill="#2668c9"/>
  </g>
</svg>
