<svg xmlns="http://www.w3.org/2000/svg" width="140" height="40" viewBox="0 0 140 40">
  <g id="ci_konantech" transform="translate(0 4)">
    <rect id="Rectangle_26" data-name="Rectangle 26" width="140" height="40" transform="translate(0 -4)" fill="none" opacity="0.1"/>
    <path id="konantech-gray" d="M-18.8-2377.261l-3.4-4.644v4.135h0c0,.6-.01,1.024.516,1.355v.034h-1.754v-.034c.526-.331.526-.76.526-1.355v-4.263c0-.6,0-1.021-.516-1.343v-.033h1.446v.01a.7.7,0,0,0,.151.268l.137.214,3.627,4.929v-4.048c0-.6.01-1.021-.516-1.344v-.032h1.744v.032c-.516.322-.516.743-.516,1.344v5.994A2.789,2.789,0,0,1-18.8-2377.261Zm-19.331-2.639a3.409,3.409,0,0,1,3.482-3.673,7.326,7.326,0,0,1,1.8.267v1.222h0a3.272,3.272,0,0,0-1.831-.609A2.38,2.38,0,0,0-37-2380.06a2.721,2.721,0,0,0,2.518,2.967,4.142,4.142,0,0,0,2.112-.673h.031l-.506,1.243a3.306,3.306,0,0,1-1.5.321A3.467,3.467,0,0,1-38.129-2379.9Zm35.718-.014a3.644,3.644,0,0,1,3.721-3.673,3.542,3.542,0,0,1,3.546,3.62,3.668,3.668,0,0,1-3.647,3.76A3.6,3.6,0,0,1-2.411-2379.913Zm1.132-.1a2.82,2.82,0,0,0,2.538,3.031,2.516,2.516,0,0,0,2.468-2.777c0-1.557-.921-3.067-2.488-3.067A2.557,2.557,0,0,0-1.279-2380.01Zm-14.432.1a3.645,3.645,0,0,1,3.721-3.673,3.542,3.542,0,0,1,3.546,3.62,3.668,3.668,0,0,1-3.647,3.76A3.6,3.6,0,0,1-15.711-2379.913Zm1.132-.1a2.82,2.82,0,0,0,2.538,3.031,2.516,2.516,0,0,0,2.468-2.777c0-1.557-.921-3.067-2.488-3.067A2.553,2.553,0,0,0-14.579-2380.01Zm20.483.161c0-2.3,1.694-3.727,4.091-3.727a6.989,6.989,0,0,1,1.557.181v1.226h-.033a2.313,2.313,0,0,0-1.765-.643A2.645,2.645,0,0,0,7.029-2380a2.9,2.9,0,0,0,2.836,3.021,4.607,4.607,0,0,0,1.376-.2v-1.533c0-.492-.01-1.015-.455-1.209v-.034h1.52v.034a1.347,1.347,0,0,0-.05.458v2.454a1.3,1.3,0,0,0,.05.482,11.87,11.87,0,0,1-2.367.321C7.4-2376.21,5.9-2377.707,5.9-2379.849Zm-32.682,3.472v-.033c.5-.2.435-.985.435-1.463v-1.932h-3.576v1.932c0,.479-.06,1.259.435,1.463v.033h-1.885v-.033c.5-.2.435-.985.435-1.463v-4.038c0-.482.071-1.259-.435-1.46v-.033h1.885v.033c-.495.2-.435.981-.435,1.473v1.326h3.576v-1.326c0-.492.07-1.269-.435-1.473v-.033h1.9v.033c-.506.2-.445.981-.445,1.46v4.038c0,.479-.06,1.259.445,1.463v.033Zm41.565,0v-.034c.482-.267.416-.96.416-1.463v-1.58l-1.644-2.856a2.518,2.518,0,0,0-.941-1.1h.9a.806.806,0,0,1,.743.3l1.584,2.786,1.232-1.989c.167-.268.4-.774-.16-1.065v-.033h1.734l-2.441,3.952v1.688h0c0,.643,0,.961.506,1.355v.034Zm-22.157,0v-.034c.506-.191.445-.984.445-1.463v-4.028c0-.492.06-1.27-.445-1.474v-.032h1.892v.032c-.5.2-.435.992-.435,1.474v4.657l1.345.1a2.328,2.328,0,0,0,1.759-.654h.03l-.516,1.424Zm-36.2,0v-.034c.506-.191.445-.984.445-1.463v-4.028c0-.492.057-1.27-.445-1.474v-.032H-40.4a.948.948,0,0,0,.465-.054h.03v1.246h-.03a1.329,1.329,0,0,0-1.169-.426,5.174,5.174,0,0,0-1.011.074v1.989h1.182a.966.966,0,0,0,.436-.063h.03v1.131h-.03c-.161-.308-.573-.3-.881-.3h-.734v2.535l1.259.127a2.352,2.352,0,0,0,1.831-.63h.031l-.449,1.4Zm-4.782,0v-.033c.5-.2.439-.985.439-1.463v-4.766h-.874a1.641,1.641,0,0,0-1.179.426H-50l.346-1.269h.03a1.453,1.453,0,0,0,.375.074h3.945a1.053,1.053,0,0,0,.455-.074h.03l-.318,1.269h-.031c-.127-.375-.522-.426-.851-.426h-.894v4.873h0c0,.609-.011,1.024.516,1.356v.033Zm74.84-7.018v-7.43H23.846a3.6,3.6,0,0,1-.458-2.207v-5.047l.224.321,3.248,4.577a6.153,6.153,0,0,0,2.4,2.416,5.534,5.534,0,0,0,2.033.715v-9.536a3.159,3.159,0,0,1,.743-2.555v-.054H28.959v.054a3.151,3.151,0,0,1,.746,2.555v4.858l-5.368-7.413v-.054H20.822v.054a3.482,3.482,0,0,1,.981,2.929v6.176a3.53,3.53,0,0,1-.469,2.206H15.746a5.832,5.832,0,0,0,3.392-5.534c0-3.938-2.6-6.119-6.158-6.119a6.039,6.039,0,0,0-6.362,6.134,5.849,5.849,0,0,0,3.268,5.519H6.306a5.482,5.482,0,0,1-.683-.85l-3.65-5.74,3.828-4.721v-.054H2.01v.054a1.1,1.1,0,0,1,.583.964,3.137,3.137,0,0,1-.777,1.427l-2.291,2.847v-2.74c0-.93-.118-1.948.713-2.5v-.054h-4.55v.054c.831.557.71,1.553.71,2.5v6.657a3.63,3.63,0,0,1-.346,2.153H-14.854v-17.156H80v24.6Zm21.246-14.367,3.248,4.577a6.132,6.132,0,0,0,2.4,2.415,5.52,5.52,0,0,0,2.032.717v-9.537a3.16,3.16,0,0,1,.744-2.555v-.051H53.078v.054a3.163,3.163,0,0,1,.743,2.555v4.858l-5.364-7.413v-.054h-3.52v.054a3.49,3.49,0,0,1,.981,2.929v6.176a3.115,3.115,0,0,1-.76,2.558v.054H48.25v-.054a3.173,3.173,0,0,1-.743-2.558v-5.047Zm-8.2,3.771.556,1.739a1.6,1.6,0,0,1,.134.675,1.235,1.235,0,0,1-.693,1.093v.053H44.64v-.056A4.918,4.918,0,0,1,43.187-2393l-3.2-9.212H35.847v.055a1.261,1.261,0,0,1,.643,1.037,7,7,0,0,1-.374,1.431l-2.335,7.141a4.348,4.348,0,0,1-1.166,2.057v.053h3.292v-.053c-.305-.269-.609-.5-.609-1a4.988,4.988,0,0,1,.3-1.286l.405-1.219Zm-39.667,3.157a3.63,3.63,0,0,1-.345-2.153v-3.037l2.093,3.556a4.127,4.127,0,0,0,1.5,1.633Zm10.832-2.577a8.557,8.557,0,0,1-.794-3.446c0-1.918.877-4.021,2.874-4.021,2.317,0,3.077,3.033,3.077,5.157a4.6,4.6,0,0,1-.626,2.612,2.742,2.742,0,0,1-2.25,1.3A2.734,2.734,0,0,1,10.7-2393.414Zm25.8-2.244,1.2-3.837h.017l1.259,3.837Z" transform="translate(55 2408)" fill="#c2c7cc"/>
  </g>
</svg>
